Motion_pl07
version=1
nRows=8
nColumns=43
inDegrees=yes
endheader
time	pelvis_tilt	pelvis_list	pelvis_rotation	pelvis_tx	pelvis_ty	pelvis_tz	hip_flexion_r	hip_adduction_r	hip_rotation_r	knee_angle_r	ankle_angle_r	subtalar_angle_r	mtp_angle_r	hip_flexion_l	hip_adduction_l	hip_rotation_l	knee_angle_l	ankle_angle_l	subtalar_angle_l	mtp_angle_l	lumbar_extension	lumbar_bending	lumbar_rotation	neck_flexion	neck_lateral_bending	neck_rotation	arm_flex_r	arm_add_r	arm_rot_r	elbow_flex_r	pro_sup_r	wrist_flex_r	wrist_dev_r	hand_finger_flex_r	arm_flex_l	arm_add_l	arm_rot_l	elbow_flex_l	pro_sup_l	wrist_flex_l	wrist_dev_l	hand_finger_flex_l
      0.83250000	      2.57280228	      1.03971943	     91.34085581	     -0.01398282	      0.57593969	      0.43474083	     76.81904451	    -13.16101258	     -5.32306981	   -112.00357760	     26.09156869	      7.69109796	      2.29752899	     75.59894279	     -6.23886860	      4.58671876	   -111.01001587	     33.91632617	     -6.00851442	     -9.55795043	    -46.39097106	      5.11275061	      1.10275418	     13.45309755	      0.82245086	      3.86813354	    -17.09772444	    -15.91741807	    -36.08470637	     57.57748190	     93.20661466	    -32.33037268	    -24.99999983	     53.01445812	    -15.15870257	    -18.14313151	    -26.77661686	     48.76138473	     92.88085278	    -34.97605705	    -14.14548997	     90.00021046
      0.83500000	      2.67568674	      1.21727745	     91.28358112	     -0.01402602	      0.57036899	      0.43291431	     77.11959158	    -13.16830459	     -5.24327377	   -112.96645024	     26.61687628	      7.97448377	      2.83812340	     76.12198091	     -6.30833680	      4.72756305	   -112.18274288	     33.93664339	     -6.06129700	     -8.17983801	    -47.16045028	      5.16267278	      1.27640068	     14.57836551	      0.83813761	      3.73254632	    -15.43040225	    -16.63527705	    -34.73406154	     58.80470808	     93.69298651	    -34.48369515	    -24.99999983	     53.11148538	    -13.52634393	    -18.92290023	    -25.01084750	     50.47214887	     92.09659296	    -36.03355726	    -13.96548942	     90.00021046
      0.83750000	      2.74961345	      1.20647245	     91.21956648	     -0.01399914	      0.56452179	      0.43121234	     77.66942315	    -13.15363921	     -5.16775585	   -113.91696014	     27.05922066	      7.92203273	      2.93098751	     76.83938913	     -6.38076676	      4.82318695	   -113.29569685	     34.00918652	     -6.16432740	     -8.06311312	    -47.68234604	      5.15144341	      1.37389982	     15.41785255	      0.97245820	      3.68570416	    -13.83485408	    -17.40505673	    -33.65808685	     60.09339572	     94.02051987	    -34.34234710	    -24.99999983	     53.15143827	    -12.00085277	    -19.60808102	    -23.87887826	     52.21266468	     92.41352317	    -35.82462093	    -14.25127042	     90.00021046
      0.84000000	      2.83213303	      1.33809827	     91.15217877	     -0.01399764	      0.55914868	      0.42943559	     77.97691881	    -13.14533793	     -5.09740950	   -114.81465100	     27.64788028	      8.13892630	      3.28995302	     77.38185278	     -6.46201972	      4.92350546	   -114.39076975	     33.97088589	     -6.30103544	     -7.02904854	    -48.41442849	      5.15422602	      1.52993588	     16.65281613	      1.05251964	      3.58218178	    -12.18534703	    -18.21143932	    -32.30961380	     61.35252413	     94.29664002	    -35.74994629	    -24.99999983	     52.60576759	    -10.41329865	    -20.46288722	    -22.20406902	     53.97346113	     92.13733625	    -36.72005739	    -14.16796372	     90.00021046
      0.84250000	      2.88629925	      1.30840545	     91.09425284	     -0.01409185	      0.55339576	      0.42765398	     78.51269245	    -13.14363903	     -4.98281588	   -115.74142019	     28.11048560	      8.06913662	      3.36845184	     78.11528017	     -6.50805161	      4.98972101	   -115.50198453	     34.04421442	     -6.38929499	     -6.93591736	    -48.84227826	      5.14126470	      1.62957898	     17.36208919	      1.12227894	      3.55047773	    -10.56266849	    -19.11024531	    -31.17979835	     62.48109699	     94.62997002	    -35.59035512	    -24.99999983	     52.57848162	     -8.87915665	    -21.24850409	    -20.96597874	     55.67832461	     92.48094370	    -36.49429822	    -14.41700996	     90.00021046
      0.84500000	      2.92889332	      1.36202126	     91.04731416	     -0.01413828	      0.54826302	      0.42606673	     78.84371522	    -13.17808970	     -4.91215430	   -116.53142668	     28.80883316	      8.27789462	      3.56656399	     78.69324986	     -6.56605949	      5.02698267	   -116.47434109	     33.97949078	     -6.51103085	     -6.32655576	    -49.52954111	      5.10301845	      1.79449283	     18.73514486	      1.33983909	      3.52439020	     -8.96310526	    -19.96617511	    -29.86393825	     63.78887047	     94.88953497	    -36.85498992	    -24.99999983	     51.68401509	     -7.28073547	    -22.17698802	    -19.33394772	     57.62265637	     92.47033943	    -37.22050150	    -14.26044805	     90.00021046
      0.84750000	      2.95138565	      1.29753216	     90.94561454	     -0.01409156	      0.54287839	      0.42441603	     79.36385980	    -13.18806423	     -4.86034414	   -117.36551357	     29.28942208	      8.23232546	      3.64196973	     79.39851100	     -6.64668172	      5.07076188	   -117.47139877	     33.98043204	     -6.55392372	     -6.19625017	    -49.91109867	      5.04755671	      1.81417289	     19.42703442	      1.34029716	      3.46402246	     -7.16939594	    -20.91823770	    -28.54279497	     64.82177995	     95.20371861	    -36.78323156	    -24.99999983	     51.53054293	     -5.70327413	    -23.16887308	    -17.88127467	     59.16578927	     92.82467693	    -37.07298016	    -14.40426286	     90.00021046
      0.85000000	      2.95208375	      1.32695892	     90.89122006	     -0.01420730	      0.53756882	      0.42273116	     79.77132040	    -13.24210831	     -4.72049201	   -118.22743347	     29.98496366	      8.47421422	      3.78565847	     80.03525958	     -6.67553135	      5.06737055	   -118.50802649	     33.88651962	     -6.70868030	     -5.39738525	    -50.45457204	      4.98755631	      1.92768295	     20.52007554	      1.50747118	      3.43736369	     -5.58991277	    -21.97498029	    -26.89936873	     66.02260180	     95.22507205	    -38.55442564	    -24.99999983	     50.06710646	     -4.12555868	    -24.26710051	    -16.04523940	     61.08021815	     92.73411060	    -38.29097725	    -13.86177320	     90.00021046
